<svg width="54" height="14" viewBox="0 0 54 14" fill="none" xmlns="http://www.w3.org/2000/svg">
<path d="M0.66 0.799999H11.3V3.3H3.44V5.98H10.42V8.4H3.44V11.5H11.3V14H0.66V0.799999ZM14.1952 0.799999H20.0152C23.8952 0.799999 26.7752 3.28 26.7752 7.4C26.7752 11.52 23.8952 14 20.0152 14H14.1952V0.799999ZM16.9752 11.5H20.0152C22.3552 11.5 23.9952 10.04 23.9952 7.4C23.9952 4.76 22.3552 3.3 20.0152 3.3H16.9752V11.5ZM27.1897 0.799999H30.4497L34.2097 5.76L37.9697 0.799999H41.2297L35.5897 8.44V14H32.8297V8.44L27.1897 0.799999ZM44.5056 0.799999H47.7256L53.1656 14H50.2056L49.0856 11.24H43.1456L42.0256 14H39.0656L44.5056 0.799999ZM44.0856 8.92H48.1256L46.1456 4.06H46.0656L44.0856 8.92Z" fill="#F2F2F7"/>
</svg>
