<svg width="314" height="25" viewBox="0 0 314 25" fill="none" xmlns="http://www.w3.org/2000/svg">
<path d="M0.656 2.88H17.68V6.88H5.104V11.168H16.272V15.04H5.104V20H17.68V24H0.656V2.88ZM22.3123 2.88H31.6243C37.8323 2.88 42.4403 6.848 42.4403 13.44C42.4403 20.032 37.8323 24 31.6243 24H22.3123V2.88ZM26.7603 20H31.6243C35.3683 20 37.9923 17.664 37.9923 13.44C37.9923 9.216 35.3683 6.88 31.6243 6.88H26.7603V20ZM43.1035 2.88H48.3195L54.3355 10.816L60.3515 2.88H65.5675L56.5435 15.104V24H52.1275V15.104L43.1035 2.88ZM70.809 2.88H75.961L84.665 24H79.929L78.137 19.584H68.633L66.841 24H62.105L70.809 2.88ZM70.137 15.872H76.601L73.433 8.096H73.305L70.137 15.872ZM97.261 1.056H115.565V4.384H100.077V12H113.229V13.536H100.077V20.64H116.013V24H97.261V1.056ZM131.28 21.088C132.112 21.088 132.934 21.0133 133.744 20.864C134.576 20.7147 135.376 20.5013 136.144 20.224C136.912 19.9467 137.638 19.6267 138.32 19.264C139.003 18.9013 139.611 18.496 140.144 18.048L142.544 20.192C141.286 21.536 139.718 22.592 137.84 23.36C135.963 24.1067 133.883 24.48 131.6 24.48C129.659 24.48 127.846 24.192 126.16 23.616C124.475 23.04 123.014 22.24 121.776 21.216C120.539 20.192 119.558 18.9653 118.832 17.536C118.128 16.1067 117.776 14.5387 117.776 12.832C117.776 11.1253 118.128 9.568 118.832 8.16C119.558 6.73067 120.539 5.504 121.776 4.48C123.014 3.456 124.475 2.656 126.16 2.08C127.846 1.504 129.659 1.216 131.6 1.216C133.734 1.216 135.696 1.54667 137.488 2.208C139.28 2.86933 140.806 3.808 142.064 5.024L140.24 7.712C139.174 6.70933 137.851 5.94133 136.272 5.408C134.715 4.87467 133.051 4.608 131.28 4.608C129.787 4.608 128.358 4.8 126.992 5.184C125.627 5.568 124.422 6.12267 123.376 6.848C122.331 7.552 121.499 8.416 120.88 9.44C120.262 10.4427 119.952 11.5733 119.952 12.832C119.952 14.0907 120.262 15.232 120.88 16.256C121.499 17.28 122.331 18.1547 123.376 18.88C124.422 19.584 125.627 20.128 126.992 20.512C128.358 20.896 129.787 21.088 131.28 21.088ZM144.023 12.512C144.023 10.8053 144.354 9.248 145.015 7.84C145.698 6.41067 146.615 5.184 147.767 4.16C148.941 3.136 150.317 2.336 151.895 1.76C153.495 1.184 155.202 0.895998 157.015 0.895998C158.871 0.895998 160.589 1.184 162.167 1.76C163.746 2.31467 165.122 3.104 166.295 4.128C167.469 5.152 168.386 6.37867 169.047 7.808C169.709 9.23733 170.039 10.8053 170.039 12.512C170.039 14.2187 169.709 15.7867 169.047 17.216C168.386 18.6453 167.469 19.872 166.295 20.896C165.122 21.92 163.746 22.72 162.167 23.296C160.589 23.872 158.871 24.16 157.015 24.16C155.202 24.16 153.495 23.872 151.895 23.296C150.317 22.72 148.941 21.92 147.767 20.896C146.615 19.872 145.698 18.6453 145.015 17.216C144.354 15.7867 144.023 14.2187 144.023 12.512ZM157.207 20.768C158.658 20.768 160.034 20.576 161.335 20.192C162.658 19.808 163.821 19.2533 164.823 18.528C165.847 17.8027 166.658 16.9387 167.255 15.936C167.853 14.912 168.151 13.7707 168.151 12.512C168.151 11.2533 167.853 10.1227 167.255 9.12C166.658 8.11733 165.847 7.25333 164.823 6.528C163.821 5.80267 162.658 5.248 161.335 4.864C160.034 4.48 158.658 4.288 157.207 4.288C155.757 4.288 154.37 4.48 153.047 4.864C151.725 5.248 150.551 5.80267 149.527 6.528C148.525 7.232 147.714 8.096 147.095 9.12C146.498 10.1227 146.199 11.2533 146.199 12.512C146.199 13.7707 146.498 14.912 147.095 15.936C147.714 16.96 148.525 17.8347 149.527 18.56C150.551 19.264 151.725 19.808 153.047 20.192C154.37 20.576 155.757 20.768 157.207 20.768ZM172.15 20.48L173.75 17.28C175.158 18.2827 176.715 19.136 178.422 19.84C180.128 20.5227 181.952 20.864 183.894 20.864C184.576 20.864 185.366 20.8213 186.262 20.736C187.158 20.6507 188.011 20.5013 188.822 20.288C189.632 20.0533 190.315 19.7333 190.87 19.328C191.446 18.9013 191.734 18.368 191.734 17.728C191.734 17.1093 191.456 16.64 190.902 16.32C190.347 15.9787 189.611 15.7227 188.694 15.552C187.798 15.36 186.774 15.2213 185.622 15.136C184.47 15.0293 183.286 14.9013 182.07 14.752C180.875 14.6027 179.702 14.3893 178.55 14.112C177.398 13.8347 176.363 13.4293 175.446 12.896C174.55 12.3627 173.824 11.6587 173.27 10.784C172.715 9.90933 172.438 8.81067 172.438 7.488C172.438 6.272 172.758 5.248 173.398 4.416C174.059 3.584 174.923 2.912 175.99 2.4C177.078 1.86667 178.304 1.48267 179.67 1.248C181.056 1.01333 182.464 0.895998 183.894 0.895998C185.899 0.895998 187.68 1.10933 189.238 1.536C190.816 1.94133 192.192 2.54933 193.366 3.36L192.022 6.848C191.51 6.54933 190.955 6.26133 190.358 5.984C189.76 5.68533 189.099 5.41867 188.374 5.184C187.648 4.928 186.838 4.72533 185.942 4.576C185.067 4.40533 184.086 4.288 182.998 4.224C182.166 4.18133 181.227 4.192 180.182 4.256C179.136 4.29867 178.155 4.42667 177.238 4.64C176.32 4.832 175.542 5.13067 174.902 5.536C174.283 5.92 173.974 6.44267 173.974 7.104C173.974 7.72267 174.251 8.224 174.806 8.608C175.36 8.992 176.086 9.312 176.982 9.568C177.899 9.80267 178.934 10.0053 180.086 10.176C181.238 10.3467 182.411 10.5387 183.606 10.752C184.822 10.9653 186.006 11.2213 187.158 11.52C188.31 11.8187 189.334 12.224 190.23 12.736C191.147 13.2267 191.883 13.856 192.438 14.624C192.992 15.3707 193.27 16.3093 193.27 17.44C193.27 18.6773 192.971 19.7227 192.374 20.576C191.798 21.4293 191.03 22.1227 190.07 22.656C189.11 23.1893 188.011 23.5733 186.774 23.808C185.558 24.0427 184.31 24.16 183.03 24.16C180.896 24.16 178.934 23.872 177.142 23.296C175.35 22.6987 173.686 21.76 172.15 20.48ZM203.757 16.192L194.445 1.056H198.253L206.573 14.112L214.861 1.056H216.845L207.213 16.192V24H203.757V16.192ZM217.743 20.48L219.344 17.28C220.752 18.2827 222.309 19.136 224.016 19.84C225.722 20.5227 227.546 20.864 229.488 20.864C230.17 20.864 230.96 20.8213 231.856 20.736C232.752 20.6507 233.605 20.5013 234.416 20.288C235.226 20.0533 235.909 19.7333 236.464 19.328C237.04 18.9013 237.328 18.368 237.328 17.728C237.328 17.1093 237.05 16.64 236.496 16.32C235.941 15.9787 235.205 15.7227 234.288 15.552C233.392 15.36 232.368 15.2213 231.216 15.136C230.064 15.0293 228.88 14.9013 227.664 14.752C226.469 14.6027 225.296 14.3893 224.144 14.112C222.992 13.8347 221.957 13.4293 221.04 12.896C220.144 12.3627 219.418 11.6587 218.864 10.784C218.309 9.90933 218.032 8.81067 218.032 7.488C218.032 6.272 218.352 5.248 218.992 4.416C219.653 3.584 220.517 2.912 221.584 2.4C222.672 1.86667 223.898 1.48267 225.264 1.248C226.65 1.01333 228.058 0.895998 229.488 0.895998C231.493 0.895998 233.274 1.10933 234.832 1.536C236.41 1.94133 237.786 2.54933 238.96 3.36L237.616 6.848C237.104 6.54933 236.549 6.26133 235.952 5.984C235.354 5.68533 234.693 5.41867 233.968 5.184C233.242 4.928 232.432 4.72533 231.536 4.576C230.661 4.40533 229.68 4.288 228.592 4.224C227.76 4.18133 226.821 4.192 225.776 4.256C224.73 4.29867 223.749 4.42667 222.832 4.64C221.914 4.832 221.136 5.13067 220.496 5.536C219.877 5.92 219.568 6.44267 219.568 7.104C219.568 7.72267 219.845 8.224 220.4 8.608C220.954 8.992 221.68 9.312 222.576 9.568C223.493 9.80267 224.528 10.0053 225.68 10.176C226.832 10.3467 228.005 10.5387 229.2 10.752C230.416 10.9653 231.6 11.2213 232.752 11.52C233.904 11.8187 234.928 12.224 235.824 12.736C236.741 13.2267 237.477 13.856 238.032 14.624C238.586 15.3707 238.864 16.3093 238.864 17.44C238.864 18.6773 238.565 19.7227 237.968 20.576C237.392 21.4293 236.624 22.1227 235.664 22.656C234.704 23.1893 233.605 23.5733 232.368 23.808C231.152 24.0427 229.904 24.16 228.624 24.16C226.49 24.16 224.528 23.872 222.736 23.296C220.944 22.6987 219.28 21.76 217.743 20.48ZM249.667 3.2H240.579V1.056H262.211V3.2H253.123V24H249.667V3.2ZM265.949 1.056H284.253V4.384H268.765V12H281.917V13.536H268.765V20.64H284.701V24H265.949V1.056ZM288.413 1.056H291.581L301.661 16.512L311.389 1.056H313.629L313.661 24H310.205L310.173 5.6L300.605 20.736L291.837 7.264V24H288.413V1.056Z" fill="white"/>
</svg>
