<svg width="44" height="22" viewBox="0 0 44 22" fill="none" xmlns="http://www.w3.org/2000/svg">
<rect width="44" height="22" rx="11" fill="#FF4500"/>
<path d="M26.2353 11C26.2353 10.8979 26.2142 10.8024 26.1721 10.7137C26.13 10.625 26.0697 10.543 25.9911 10.4677L19.322 4.20968C19.1705 4.06989 18.9852 4 18.7663 4C18.6259 4 18.4968 4.03226 18.3789 4.09677C18.261 4.16129 18.1684 4.24866 18.101 4.35887C18.0337 4.46909 18 4.59409 18 4.73387C18 4.9328 18.073 5.10753 18.2189 5.25807L24.3491 11L18.2189 16.742C18.073 16.8925 18 17.0672 18 17.2662C18 17.406 18.0337 17.531 18.101 17.6412C18.1684 17.7514 18.261 17.8387 18.3789 17.9032C18.4968 17.9677 18.6259 18 18.7663 18C18.9852 18 19.1705 17.9274 19.322 17.7823L25.9911 11.5323C26.0697 11.457 26.13 11.375 26.1721 11.2863C26.2142 11.1976 26.2353 11.1022 26.2353 11Z" fill="white"/>
</svg>
